<?xml version="1.0" standalone="no"?>
<!DOCTYPE svg PUBLIC "-//W3C//DTD SVG 20010904//EN"
 "http://www.w3.org/TR/2001/REC-SVG-20010904/DTD/svg10.dtd">
<svg version="1.0" xmlns="http://www.w3.org/2000/svg"
 width="1600.000000pt" height="900.000000pt" viewBox="0 0 1600.000000 900.000000"
 preserveAspectRatio="xMidYMid meet">

<g transform="translate(0.000000,900.000000) scale(0.100000,-0.100000)"
fill="#000000" stroke="none">
<path d="M3832 8583 c-6 -16 -142 -379 -302 -808 -160 -429 -305 -814 -321
-855 -15 -41 -60 -160 -99 -265 -62 -165 -184 -491 -255 -680 -12 -33 -59
-159 -104 -280 -45 -121 -86 -231 -92 -245 -10 -22 -75 -197 -264 -705 -68
-184 -110 -295 -136 -357 -10 -26 -19 -49 -19 -52 0 -3 227 -6 504 -6 l504 0
27 72 c15 40 37 100 50 133 12 33 77 207 143 386 67 180 126 337 131 350 6 13
60 159 121 324 61 165 123 329 137 365 23 59 46 122 75 208 15 44 29 41 23 -5
-2 -21 -12 -148 -20 -283 -8 -135 -22 -346 -30 -470 -9 -124 -24 -355 -35
-515 -10 -159 -22 -352 -26 -428 l-6 -137 542 2 542 3 40 105 c22 58 85 227
140 375 55 149 108 290 118 315 9 25 48 126 84 225 37 99 78 207 90 240 13 33
56 148 96 255 40 107 80 215 90 240 22 58 207 553 277 740 29 80 66 179 82
220 16 41 86 228 156 415 69 187 130 351 136 364 18 43 289 770 289 775 0 4
-226 6 -503 6 l-503 0 -86 -232 c-48 -128 -123 -330 -168 -448 -44 -118 -87
-231 -94 -250 -55 -147 -192 -513 -205 -547 -9 -23 -47 -127 -86 -232 -38
-104 -73 -187 -76 -183 -3 4 -2 52 2 107 4 55 12 179 18 275 15 234 37 572 61
925 10 160 22 349 25 420 3 72 8 138 11 148 5 16 -25 17 -534 17 l-540 0 -10
-27z"/>
<path d="M6656 8601 c-3 -5 -28 -69 -55 -142 -27 -74 -54 -145 -60 -159 -5
-14 -67 -178 -136 -365 -69 -187 -130 -351 -136 -364 -5 -13 -46 -121 -90
-240 -44 -119 -93 -250 -109 -291 -16 -41 -60 -158 -98 -260 -129 -346 -233
-625 -257 -685 -13 -33 -56 -148 -96 -255 -39 -107 -80 -215 -89 -240 -10 -25
-50 -133 -90 -240 -40 -107 -80 -215 -90 -240 -9 -25 -57 -151 -105 -280 -48
-129 -98 -262 -110 -295 -13 -33 -34 -91 -49 -129 -14 -37 -26 -72 -26 -77 0
-5 219 -9 503 -9 l502 0 65 177 c36 97 74 201 86 232 11 31 58 155 103 276 45
121 88 236 96 255 8 19 49 127 90 240 42 113 87 232 100 265 13 33 49 129 79
213 31 85 74 200 96 255 21 56 110 291 196 522 86 231 166 443 176 470 11 28
28 73 37 100 36 99 393 1052 426 1136 19 47 37 98 41 112 l6 27 -500 0 c-282
0 -503 -4 -506 -9z"/>
<path d="M7775 8448 c-33 -89 -74 -201 -91 -248 -35 -95 -263 -708 -301 -810
-14 -36 -29 -76 -33 -90 -5 -14 -68 -182 -140 -375 -72 -192 -194 -521 -272
-730 -77 -209 -151 -409 -165 -445 -13 -36 -30 -81 -37 -100 -26 -70 -289
-777 -318 -855 -16 -44 -42 -114 -58 -155 -15 -41 -46 -124 -69 -185 -22 -60
-41 -113 -41 -117 0 -5 226 -8 503 -8 l502 0 42 113 c49 130 148 392 173 457
9 25 38 101 64 170 26 69 51 135 57 148 5 13 61 161 125 330 64 169 126 334
139 367 13 33 33 87 45 120 13 33 26 64 30 68 7 8 11 -120 30 -893 5 -212 12
-497 16 -634 l7 -249 721 6 c419 3 714 2 705 -3 -14 -8 -197 -60 -459 -130
-58 -15 -150 -40 -205 -55 -55 -15 -138 -38 -185 -50 -47 -13 -220 -60 -385
-105 -300 -82 -424 -115 -480 -130 -16 -4 -66 -18 -110 -30 -44 -12 -102 -28
-130 -35 -27 -7 -268 -73 -535 -145 -267 -73 -532 -145 -590 -160 -58 -15
-206 -56 -330 -90 -124 -34 -274 -75 -335 -91 -163 -43 -294 -79 -345 -93 -25
-7 -97 -27 -160 -44 -142 -38 -798 -215 -900 -244 -41 -11 -88 -24 -105 -28
-16 -4 -75 -20 -130 -35 -667 -178 -1368 -71 -1797 274 -298 240 -468 558
-513 960 -19 161 -18 251 0 432 35 347 165 781 349 1159 25 52 46 96 46 98 0
7 -210 -248 -341 -413 -754 -950 -1267 -1815 -1509 -2545 -54 -162 -104 -362
-132 -525 -30 -177 -32 -473 -4 -620 22 -118 76 -285 118 -369 113 -224 285
-403 570 -592 84 -55 304 -169 388 -199 115 -42 308 -94 431 -116 121 -22 161
-24 419 -24 299 1 401 11 665 65 226 47 619 163 855 253 36 13 101 38 145 55
321 121 694 277 1690 705 231 99 465 199 520 222 55 23 154 66 220 95 66 29
181 78 255 110 194 83 580 249 615 265 17 8 163 71 325 141 343 147 886 381
915 394 11 5 178 77 370 160 193 83 359 155 370 160 42 19 589 256 785 340
113 48 329 141 480 207 151 66 460 200 685 298 650 281 1273 551 1770 767 253
110 656 284 895 388 239 104 683 296 985 428 303 131 705 306 894 388 386 168
432 196 366 226 -30 13 -38 12 -635 -152 -124 -34 -274 -75 -335 -91 -134 -36
-270 -72 -350 -95 -33 -9 -107 -29 -165 -44 -58 -16 -298 -81 -535 -145 -236
-64 -452 -123 -480 -130 -27 -7 -86 -23 -130 -35 -44 -12 -93 -26 -110 -30
-16 -4 -165 -45 -330 -90 -165 -45 -309 -84 -320 -87 -32 -8 -274 -73 -345
-93 -76 -21 -274 -75 -463 -125 -72 -20 -190 -52 -260 -72 -70 -20 -129 -34
-132 -32 -2 3 22 77 54 164 l58 160 -589 3 c-556 2 -590 3 -583 20 3 9 49 132
101 272 52 140 103 275 113 300 10 25 52 136 92 247 l74 203 488 2 488 3 55
145 c30 80 61 163 69 185 8 22 50 135 93 250 l79 210 -484 3 c-455 2 -484 3
-479 20 3 9 77 211 164 447 l159 430 514 3 514 2 27 73 c27 72 95 252 128 337
78 203 110 288 110 294 0 3 -694 6 -1542 5 l-1543 0 -225 -276 c-124 -151
-295 -359 -380 -462 -85 -103 -217 -263 -293 -355 -76 -92 -140 -166 -142
-164 -4 4 15 56 87 243 10 28 34 91 53 140 18 50 42 113 53 140 11 28 42 111
70 185 28 74 87 228 131 343 l79 207 -512 0 -511 0 -60 -162z m2631 -39 c-19
-52 -44 -119 -56 -149 -12 -30 -30 -77 -39 -105 -30 -81 -390 -1044 -416
-1110 -13 -33 -56 -148 -96 -255 -39 -107 -80 -217 -91 -245 -11 -27 -28 -72
-37 -100 -34 -92 -572 -1530 -582 -1555 -6 -13 -29 -74 -51 -135 -22 -60 -44
-114 -48 -118 -4 -5 -11 99 -14 230 -4 131 -13 461 -21 733 -17 534 -35 1178
-35 1222 0 21 72 106 358 419 196 216 404 445 462 509 405 447 693 760 697
757 2 -2 -12 -47 -31 -98z"/>
</g>
</svg>
