<?xml version="1.0" standalone="no"?>
<!DOCTYPE svg PUBLIC "-//W3C//DTD SVG 20010904//EN"
 "http://www.w3.org/TR/2001/REC-SVG-20010904/DTD/svg10.dtd">
<svg version="1.0" xmlns="http://www.w3.org/2000/svg"
 width="225.000000pt" height="225.000000pt" viewBox="0 0 225.000000 225.000000"
 preserveAspectRatio="xMidYMid meet">

<g transform="translate(0.000000,225.000000) scale(0.100000,-0.100000)"
fill="#000000" stroke="none">
<path d="M883 1839 c-118 -18 -254 -58 -346 -103 -127 -61 -120 -53 -97 -113
68 -180 84 -466 41 -748 -27 -176 -24 -231 17 -318 33 -70 112 -173 141 -182
10 -3 43 4 72 16 71 28 227 69 262 69 42 0 32 14 -25 34 -68 23 -148 103 -173
172 -16 43 -19 90 -23 367 l-4 317 370 0 369 0 5 -137 c2 -76 2 -226 -2 -333
-6 -186 -7 -197 -33 -246 -32 -63 -94 -118 -161 -143 -55 -21 -54 -22 39 -41
33 -6 109 -28 169 -48 l109 -37 54 60 c69 76 113 165 120 242 3 36 -3 120 -18
218 -41 288 -27 531 41 729 11 33 20 60 20 62 0 7 -98 57 -166 84 -159 64
-265 82 -504 85 -118 2 -243 -1 -277 -6z m255 -62 c-10 -12 -15 -12 -26 -1
-11 11 -11 16 0 27 10 12 15 12 26 1 11 -11 11 -16 0 -27z m-133 -58 c-4 -5 1
-9 9 -9 9 0 15 4 14 9 -2 5 2 8 7 8 6 -1 9 -5 8 -9 -2 -5 2 -8 7 -8 6 0 10 5
10 10 0 6 5 10 11 10 6 0 9 -6 6 -14 -4 -10 3 -17 22 -21 39 -8 81 3 74 21 -3
8 0 14 6 14 6 0 11 -4 11 -10 0 -5 5 -10 10 -10 6 0 10 7 10 15 0 8 5 15 10
15 6 0 10 -7 10 -15 0 -8 5 -15 10 -15 6 0 10 5 10 10 0 6 5 10 11 10 6 0 9
-7 5 -15 -6 -17 9 -21 19 -5 4 6 11 7 17 4 6 -4 6 -10 -1 -17 -15 -15 -14 -27
3 -21 8 3 17 1 21 -5 3 -6 -1 -11 -9 -11 -9 0 -16 -7 -16 -15 0 -9 6 -12 16
-8 12 4 15 2 12 -8 -3 -8 -11 -13 -17 -12 -17 4 -13 -14 5 -21 8 -3 12 -11 9
-16 -5 -8 -12 -7 -22 2 -13 10 -14 9 -12 -7 2 -11 0 -26 -4 -32 -5 -9 -3 -13
7 -13 19 0 20 -5 5 -31 -5 -11 -14 -17 -19 -14 -6 4 -7 -2 -3 -11 4 -11 8 -13
11 -6 2 7 11 12 19 12 9 0 13 -6 9 -15 -3 -9 0 -15 10 -15 8 0 12 5 9 10 -10
16 5 51 20 48 18 -4 65 52 65 79 0 25 -47 66 -67 59 -7 -3 -13 1 -13 8 0 8 -3
21 -6 30 -3 9 -1 16 5 16 6 0 11 -7 11 -15 0 -8 5 -15 10 -15 6 0 10 7 10 15
0 8 5 15 11 15 6 0 9 -9 6 -20 -3 -11 -1 -20 4 -20 5 0 9 5 9 10 0 6 7 10 16
10 13 0 14 -3 5 -14 -8 -10 -9 -16 -1 -21 5 -3 10 -1 10 4 0 6 5 11 10 11 6 0
10 -7 10 -15 0 -8 -5 -15 -11 -15 -5 0 -8 -4 -4 -10 3 -5 12 -7 20 -3 8 3 15
0 15 -6 0 -6 -7 -11 -15 -11 -8 0 -15 -4 -15 -10 0 -5 7 -10 15 -10 8 0 15 -5
15 -11 0 -6 -7 -9 -15 -5 -17 6 -21 -9 -5 -19 15 -9 2 -25 -14 -19 -12 4 -66
-55 -58 -64 5 -5 -66 -62 -78 -62 -7 0 -10 -7 -7 -15 9 -23 -6 -25 -58 -10
-62 19 -159 19 -221 0 -27 -8 -50 -15 -51 -15 -2 0 -3 9 -3 20 0 11 -6 20 -14
20 -8 0 -23 11 -34 25 -11 14 -25 25 -31 25 -6 0 -11 6 -11 14 0 22 -41 68
-56 62 -7 -3 -16 -1 -19 5 -4 5 1 12 9 15 9 3 14 10 11 15 -3 4 -12 6 -20 2
-8 -3 -15 0 -15 6 0 6 7 11 15 11 8 0 15 5 15 10 0 6 -7 10 -15 10 -24 0 -17
20 8 21 12 0 16 3 10 6 -15 6 -17 33 -3 33 6 0 10 -5 10 -11 0 -5 4 -8 10 -4
5 3 7 12 3 20 -3 8 0 15 6 15 6 0 11 -4 11 -10 0 -5 5 -10 10 -10 6 0 10 6 8
13 -2 6 2 13 7 13 6 1 9 -2 8 -7 -2 -5 1 -9 7 -9 6 0 10 7 10 15 0 8 4 15 9
15 5 0 8 -11 7 -24 -1 -18 -8 -26 -28 -30 -40 -8 -61 -45 -47 -84 6 -17 17
-33 25 -36 8 -3 14 -13 14 -23 0 -15 2 -16 10 -3 8 13 11 12 23 -5 8 -10 13
-25 10 -32 -3 -7 0 -13 6 -13 6 0 10 5 8 11 -1 6 4 14 11 16 6 3 12 0 12 -7 0
-6 5 -8 10 -5 6 3 10 11 10 16 0 6 -4 8 -9 4 -6 -3 -15 3 -20 14 -14 26 -14
31 2 31 9 0 12 10 9 30 -3 25 -7 28 -18 19 -11 -9 -14 -8 -14 5 0 9 8 16 17
16 9 0 13 3 9 8 -4 4 -12 7 -17 7 -5 0 -9 5 -8 10 1 6 5 9 10 8 5 -2 9 4 9 12
0 8 -4 15 -10 15 -5 0 -10 5 -10 11 0 6 7 9 15 5 12 -4 14 0 9 22 -5 22 -4 25
7 15 16 -15 33 -17 24 -3 -8 13 4 32 16 24 5 -3 7 -10 4 -15z m143 14 c-10 -2
-28 -2 -40 0 -13 2 -5 4 17 4 22 1 32 -1 23 -4z m-516 -95 c3 -26 2 -45 -3
-42 -5 3 -9 26 -9 51 0 58 6 53 12 -9z m92 20 c3 -12 1 -28 -3 -36 -6 -11 -8
-7 -8 14 0 15 -6 30 -12 32 -6 2 -11 8 -11 13 0 17 28 -3 34 -23z m854 20 c7
-7 11 -23 11 -37 -1 -21 -2 -22 -6 -6 -3 11 -12 28 -21 38 -17 19 -3 24 16 5z
m80 0 c7 -7 11 -23 11 -37 -1 -21 -2 -22 -6 -6 -3 11 -12 28 -21 38 -17 19 -3
24 16 5z m-972 -45 c-7 -7 -26 7 -26 19 0 6 6 6 15 -2 9 -7 13 -15 11 -17z
m872 -25 c8 -10 11 -18 6 -18 -18 0 -34 24 -33 50 1 20 2 21 6 5 3 -11 12 -28
21 -37z m72 19 c0 -5 -4 -5 -10 -2 -5 3 -10 14 -10 23 0 15 2 15 10 2 5 -8 10
-19 10 -23z m-935 -27 c3 -5 2 -10 -4 -10 -5 0 -13 5 -16 10 -3 6 -2 10 4 10
5 0 13 -4 16 -10z m904 -53 c8 -10 7 -17 -1 -25 -9 -9 -4 -12 21 -12 24 0 34
-5 38 -19 3 -11 13 -21 24 -24 34 -9 33 -35 -5 -96 -21 -35 -34 -66 -30 -75 5
-14 -4 -16 -61 -16 -53 0 -66 3 -62 14 3 7 -9 35 -27 62 -44 66 -48 81 -30 96
9 7 26 23 39 36 12 12 32 22 45 22 16 0 20 4 16 16 -12 30 12 45 33 21z m-768
-50 c-13 -13 -26 -3 -16 12 3 6 11 8 17 5 6 -4 6 -10 -1 -17z m609 3 c0 -5 -4
-10 -10 -10 -5 0 -10 5 -10 10 0 6 5 10 10 10 6 0 10 -4 10 -10z m-757 -17 c4
-3 2 -11 -3 -18 -12 -15 12 -51 28 -41 7 4 12 18 12 32 0 15 6 24 15 24 18 0
20 -21 4 -37 -7 -7 -9 -19 -5 -28 4 -13 10 -14 26 -5 21 11 21 11 5 -20 -12
-24 -21 -30 -33 -24 -30 13 -99 16 -121 5 -18 -10 -22 -7 -36 20 -16 29 -16
30 3 20 16 -8 21 -7 26 6 4 9 2 21 -4 27 -15 15 -12 36 6 36 11 0 15 -6 11
-20 -6 -22 16 -45 34 -35 6 4 9 19 5 36 -5 28 10 40 27 22z m36 -127 c32 -18
12 -30 -56 -32 -37 -1 -53 2 -57 12 -11 30 70 44 113 20z m9 -63 c3 -10 -14
-13 -63 -13 -60 0 -66 2 -55 15 16 19 111 17 118 -2z m2 -32 c0 -6 -4 -13 -10
-16 -5 -3 -10 -31 -10 -61 l0 -54 -39 0 -39 0 -4 53 c-2 28 -8 60 -12 70 -7
15 -2 17 53 17 34 0 61 -4 61 -9z m906 -13 c-9 -13 -16 -43 -16 -70 l0 -48
-35 0 c-34 0 -35 1 -35 40 0 23 -7 54 -15 70 l-16 30 66 0 66 0 -15 -22z
m-956 -192 c-8 -8 -15 -6 -26 8 -16 23 -18 36 -4 36 6 0 10 -9 10 -20 0 -31
20 -24 21 8 2 25 2 25 6 3 3 -13 0 -28 -7 -35z m50 44 c-10 -6 -11 -10 -2 -10
6 0 12 -7 12 -16 0 -24 -33 -12 -36 14 -3 17 1 22 19 22 18 0 19 -2 7 -10z
m808 -10 c9 22 11 22 12 5 l1 -20 10 20 c9 19 9 18 5 -2 -2 -13 1 -23 7 -23 6
0 7 -3 4 -6 -4 -4 -13 -2 -21 5 -11 9 -15 9 -18 0 -7 -20 -28 0 -27 24 1 20 2
20 9 -3 l7 -25 11 25z m80 -9 c-7 -9 -13 -17 -14 -19 -1 -2 -1 8 -1 22 0 17 4
23 14 19 11 -4 11 -8 1 -22z m50 -17 c2 -20 0 -25 -7 -15 -5 8 -14 10 -22 6
-9 -6 -11 -3 -6 9 4 10 7 22 7 28 0 24 25 -1 28 -28z m-1101 -14 l-14 -21 -6
23 c-7 24 12 43 27 28 5 -5 2 -17 -7 -30z m43 25 c0 -8 8 -15 18 -15 14 0 15
-2 2 -9 -8 -6 -17 -8 -21 -5 -11 6 -18 44 -8 44 5 0 9 -7 9 -15z m1100 -26 c0
-28 -1 -29 -16 -14 -13 12 -14 19 -4 30 17 21 20 19 20 -16z m-1000 -54 c0
-29 -6 -39 -32 -55 -18 -11 -36 -20 -40 -20 -5 0 -8 22 -8 49 0 52 5 57 58 60
19 1 22 -4 22 -34z m894 29 c12 -4 16 -20 16 -55 l0 -49 -32 13 c-29 12 -33
19 -36 55 -3 36 0 42 17 42 10 0 26 -3 35 -6z m-943 -189 c36 45 47 33 51 -57
3 -46 8 -91 12 -100 7 -16 1 -18 -54 -18 -60 0 -62 1 -55 23 5 12 11 58 14
102 2 44 7 67 9 52 l3 -28 20 26z m925 4 l19 -21 6 24 c4 14 7 -4 8 -45 1 -37
8 -83 15 -102 l15 -35 -65 0 c-35 0 -64 2 -64 4 0 2 7 20 15 39 8 20 15 64 15
97 0 65 6 72 36 39z"/>
<path d="M990 1664 c-16 -18 -15 -71 1 -90 6 -7 8 -18 4 -24 -3 -5 -2 -10 4
-10 5 0 13 5 16 10 9 15 25 2 25 -20 0 -10 -8 -20 -17 -23 -17 -4 -17 -4 0
-12 12 -5 22 -2 31 10 12 17 14 17 23 1 9 -16 11 -16 22 -2 11 13 11 16 -3 16
-10 0 -16 9 -16 25 0 18 4 23 15 19 20 -8 19 10 -1 26 -10 9 -14 26 -12 49 3
36 2 36 -38 39 -28 2 -45 -2 -54 -14z"/>
<path d="M1110 1659 c-15 -26 3 -75 22 -63 9 6 9 9 0 12 -7 2 -12 8 -12 13 0
4 7 6 15 3 20 -8 20 29 1 45 -12 10 -17 8 -26 -10z m30 -3 c0 -3 -4 -8 -10
-11 -5 -3 -10 -1 -10 4 0 6 5 11 10 11 6 0 10 -2 10 -4z"/>
<path d="M1169 1673 c-1 -5 0 -22 1 -39 1 -17 -6 -36 -14 -43 -20 -17 -21 -35
-1 -27 11 4 15 -1 15 -19 0 -16 -6 -25 -16 -25 -14 0 -14 -3 -4 -15 13 -16 35
-21 25 -6 -3 5 -1 12 4 16 5 3 14 -2 19 -11 7 -12 15 -15 28 -9 18 8 18 8 1
12 -12 3 -16 10 -13 20 3 8 6 19 6 24 0 6 7 6 19 0 17 -9 20 -5 30 34 14 57
14 61 -5 79 -16 16 -93 23 -95 9z"/>
<path d="M1107 1443 c-14 -13 -6 -23 18 -23 16 0 25 6 25 15 0 15 -31 21 -43
8z"/>
<path d="M1018 1432 c-12 -5 -14 -11 -9 -21 11 -17 41 -7 41 14 0 16 -5 17
-32 7z"/>
<path d="M1200 1426 c0 -18 31 -29 44 -16 8 8 7 14 -4 20 -22 14 -40 12 -40
-4z"/>
<path d="M1523 1485 c-6 -17 23 -101 38 -110 5 -4 9 20 9 53 0 45 -4 61 -16
66 -22 8 -24 8 -31 -9z"/>
<path d="M1603 1493 c-15 -6 -18 -123 -4 -123 13 0 44 84 39 106 -3 19 -16 25
-35 17z"/>
<path d="M1475 1440 c-7 -11 34 -90 46 -90 17 0 18 20 1 59 -17 40 -34 51 -47
31z"/>
<path d="M1643 1408 c-19 -47 -19 -51 -5 -56 14 -4 55 66 48 83 -10 26 -26 16
-43 -27z"/>
<path d="M1550 1320 c-11 -7 -1 -10 35 -9 37 0 45 3 30 9 -27 12 -47 12 -65 0z"/>
<path d="M555 1070 c-3 -5 -1 -10 4 -10 6 0 11 5 11 10 0 6 -2 10 -4 10 -3 0
-8 -4 -11 -10z"/>
<path d="M790 1150 l0 -170 120 0 120 0 0 -182 c0 -162 2 -180 15 -162 10 13
14 45 15 102 0 79 1 82 19 72 11 -5 31 -10 45 -10 19 0 26 -5 26 -20 0 -30 37
-122 63 -158 13 -17 41 -45 62 -62 43 -34 53 -32 109 26 55 57 76 126 76 249
l0 105 -120 0 -120 0 0 55 c0 30 4 55 10 55 5 0 6 -7 3 -17 -4 -11 -3 -14 5
-9 7 4 12 1 12 -8 0 -9 5 -16 10 -16 6 0 10 7 10 15 0 9 10 15 26 15 19 0 25
4 20 15 -7 19 1 19 20 0 14 -13 12 -16 -11 -25 -30 -11 -29 -33 2 -38 13 -2
29 7 42 24 20 25 20 28 5 45 -15 17 -11 45 5 35 16 -11 33 14 37 55 11 117 10
124 -14 127 -13 2 -25 -3 -28 -12 -5 -14 -11 -12 -36 9 -33 28 -37 29 -58 15
-12 -8 -12 -10 2 -15 15 -6 14 -9 -3 -26 -22 -22 -43 -14 -54 22 -7 22 -28 25
-44 6 -13 -17 3 -42 38 -60 32 -16 31 -31 -4 -37 -20 -4 -29 -12 -32 -28 -2
-14 1 -21 7 -17 5 3 10 1 10 -4 0 -6 -20 -11 -45 -11 l-45 0 0 105 0 105 -160
0 -160 0 0 -170z m170 148 c17 10 20 10 20 -3 0 -8 -4 -15 -10 -15 -5 0 -10
-20 -10 -45 0 -38 3 -45 20 -45 13 0 20 7 20 20 0 11 -4 20 -10 20 -5 0 -10 3
-10 8 0 4 14 7 30 7 17 0 30 -3 30 -7 0 -5 -4 -8 -10 -8 -5 0 -10 -9 -10 -20
0 -11 7 -20 15 -20 8 0 15 -9 15 -20 0 -12 -7 -20 -16 -20 -15 0 -16 -9 -11
-65 6 -64 6 -65 -18 -65 -16 0 -25 6 -25 15 0 10 -10 15 -30 15 -20 0 -30 -5
-30 -15 0 -11 -11 -15 -40 -15 -36 0 -40 2 -40 25 0 19 5 25 18 23 14 -2 18 5
20 40 3 37 1 42 -17 42 -24 0 -29 28 -6 36 17 7 21 44 5 44 -5 0 -10 4 -10 8
0 4 16 8 36 8 30 0 33 -2 20 -12 -25 -18 -20 -44 9 -44 23 0 25 4 25 45 0 25
-4 45 -10 45 -5 0 -10 8 -10 18 0 14 2 15 10 2 8 -12 13 -13 30 -2z m445 -84
c-10 -56 -23 -84 -39 -84 -7 0 -17 7 -20 16 -7 18 11 57 23 49 5 -2 11 9 15
25 3 17 11 30 17 30 7 0 9 -12 4 -36z m-121 -102 c-14 -3 -26 -30 -20 -40 2
-4 -6 -7 -19 -7 -18 0 -24 7 -28 28 -3 22 2 30 22 40 21 10 28 10 41 -3 11
-10 12 -16 4 -18z m-185 -83 c-7 -4 -9 -14 -6 -22 7 -19 -14 -29 -34 -16 -10
6 -10 9 -1 9 16 0 16 27 0 32 -9 3 -8 9 2 20 14 15 17 15 33 0 12 -11 14 -18
6 -23z m91 21 c13 -8 13 -11 1 -19 -8 -5 -11 -16 -8 -25 5 -12 0 -16 -21 -15
-15 0 -21 3 -14 6 6 2 12 11 12 18 0 7 -6 16 -12 18 -10 4 -9 8 2 16 18 13 21
13 40 1z m-20 -142 c0 -3 -9 -8 -20 -11 -23 -6 -27 -27 -5 -27 21 0 19 -20 -2
-21 -44 -3 -65 7 -44 21 8 4 11 15 8 25 -4 9 -11 13 -17 10 -5 -3 -10 1 -10 9
0 9 6 16 14 16 8 0 16 7 20 15 4 12 10 10 31 -9 14 -13 25 -26 25 -28z m254
-8 c2 -3 -44 -5 -102 -6 -59 0 -89 2 -67 5 46 7 162 7 169 1z m-141 -93 c-3
-4 -14 5 -26 20 -12 15 -25 30 -29 31 -5 2 -8 9 -8 15 0 7 15 -4 34 -23 18
-19 32 -39 29 -43z m34 64 c9 8 13 8 13 0 0 -6 -4 -11 -10 -11 -5 0 -11 -10
-11 -22 -1 -21 -2 -21 -6 -3 -3 11 -10 27 -16 35 -9 12 -9 13 3 3 10 -9 17
-10 27 -2z m49 -31 c-46 -41 -54 -38 -15 5 18 19 36 32 40 29 5 -3 -7 -18 -25
-34z m40 -9 c-32 -49 -32 -61 -5 -61 16 0 20 5 16 20 -3 11 -1 18 4 14 16 -9
10 -30 -16 -54 -18 -17 -22 -27 -14 -36 15 -18 3 -49 -33 -90 -39 -44 -67 -44
-106 0 -36 41 -48 72 -33 90 8 9 4 19 -14 36 -26 24 -32 45 -16 54 5 4 7 -3 4
-14 -4 -15 0 -20 16 -20 25 0 26 12 5 48 l-16 27 24 -27 c13 -16 29 -28 35
-28 7 0 14 -4 17 -9 4 -5 -2 -7 -12 -4 -10 2 -24 -3 -32 -12 -11 -13 -10 -18
5 -29 16 -12 21 -11 38 8 l19 21 -15 -23 c-8 -13 -13 -31 -10 -42 3 -10 0 -21
-5 -24 -6 -4 -8 2 -5 14 4 15 0 20 -16 20 -11 0 -21 -6 -20 -12 1 -24 36 -73
61 -87 23 -13 29 -13 51 2 27 17 64 83 54 94 -12 11 -39 -7 -33 -23 3 -9 2
-12 -5 -9 -6 4 -8 14 -4 22 3 9 -1 26 -10 39 -11 17 -12 25 -3 30 6 4 9 3 5
-2 -3 -5 0 -17 7 -26 10 -14 14 -14 30 -2 16 11 17 16 6 29 -7 8 -19 15 -26
15 -8 0 -14 4 -14 10 0 5 6 7 14 4 9 -4 24 11 41 41 15 25 29 44 32 41 2 -2
-7 -22 -21 -45z m-83 -201 c10 -13 10 -13 -4 -3 -10 8 -19 9 -27 3 -9 -7 -9
-7 -2 2 6 7 11 37 12 67 l2 56 3 -55 c3 -30 10 -61 16 -70z"/>
<path d="M900 1105 c0 -8 9 -15 20 -15 11 0 20 7 20 15 0 8 -9 15 -20 15 -11
0 -20 -7 -20 -15z"/>
<path d="M960 1105 c0 -8 7 -15 15 -15 8 0 15 7 15 15 0 8 -7 15 -15 15 -8 0
-15 -7 -15 -15z"/>
<path d="M1248 1253 c6 -2 18 -2 25 0 6 3 1 5 -13 5 -14 0 -19 -2 -12 -5z"/>
<path d="M830 783 c1 -123 4 -162 15 -177 13 -18 15 -1 15 157 0 151 -2 177
-15 177 -13 0 -15 -24 -15 -157z"/>
<path d="M902 743 c2 -146 6 -197 16 -201 9 -3 12 41 12 197 0 173 -2 201 -15
201 -13 0 -15 -26 -13 -197z"/>
<path d="M960 743 c0 -195 0 -196 20 -178 19 17 20 31 20 197 0 171 -1 178
-20 178 -19 0 -20 -7 -20 -197z"/>
<path d="M1116 642 c-4 -12 -11 -20 -16 -17 -5 3 -6 -10 -3 -30 4 -28 2 -35
-11 -35 -24 0 -19 -19 9 -32 14 -6 25 -16 25 -22 0 -8 2 -8 8 0 4 6 17 16 30
23 26 14 29 31 6 31 -13 0 -15 8 -12 34 2 19 0 32 -4 30 -5 -3 -12 5 -17 18
l-8 23 -7 -23z"/>
<path d="M1000 451 c-85 -13 -168 -37 -293 -86 -120 -46 -199 -69 -279 -80
l-47 -6 21 -35 c18 -31 24 -34 64 -34 66 0 181 26 291 66 144 52 220 66 368
66 148 0 222 -14 371 -67 119 -42 220 -65 290 -65 48 0 51 2 67 34 l16 35 -47
6 c-81 12 -157 34 -277 81 -64 25 -151 54 -193 65 -85 22 -268 32 -352 20z
m41 -48 l-5 -38 -7 30 -7 30 -2 -35 -2 -35 -7 30 c-6 21 -3 34 8 43 23 19 27
15 22 -25z m214 27 c3 -5 1 -10 -4 -10 -6 0 -11 5 -11 10 0 6 2 10 4 10 3 0 8
-4 11 -10z m-25 -27 c0 -17 -17 -17 -23 0 -4 7 -6 8 -6 1 -1 -14 18 -30 44
-37 16 -4 15 -5 -6 -6 -29 -1 -54 21 -46 42 7 18 37 18 37 0z m-395 -23 c3 -5
2 -10 -4 -10 -5 0 -13 5 -16 10 -3 6 -2 10 4 10 5 0 13 -4 16 -10z m-35 -26
c0 -8 7 -17 15 -20 18 -7 10 -24 -11 -24 -8 0 -12 5 -9 10 3 6 3 10 -2 10 -4
0 -8 11 -8 24 0 13 3 22 8 19 4 -2 7 -11 7 -19z m670 16 c-8 -5 -12 -10 -8
-10 13 0 -26 -40 -38 -40 -9 0 -10 7 -1 30 9 23 18 30 37 30 20 0 22 -2 10
-10z m-620 -25 c7 -8 8 -15 2 -15 -5 0 -15 7 -22 15 -7 8 -8 15 -2 15 5 0 15
-7 22 -15z"/>
<path d="M1436 355 c-9 -26 -7 -32 5 -12 6 10 9 21 6 23 -2 3 -7 -2 -11 -11z"/>
<path d="M445 373 c-35 -18 -75 -53 -75 -65 0 -16 157 0 179 19 7 5 -51 63
-63 63 -6 -1 -24 -8 -41 -17z"/>
<path d="M551 361 c12 -17 26 -28 31 -25 11 7 -8 31 -35 45 -17 10 -16 7 4
-20z"/>
<path d="M1686 367 c-18 -15 -25 -26 -18 -31 6 -3 20 7 32 24 26 36 24 37 -14
7z"/>
<path d="M1725 360 c-16 -16 -27 -31 -24 -33 22 -19 179 -35 179 -19 0 18 -88
82 -113 82 -7 0 -26 -13 -42 -30z"/>
<path d="M595 360 c3 -5 11 -10 16 -10 6 0 7 5 4 10 -3 6 -11 10 -16 10 -6 0
-7 -4 -4 -10z"/>
<path d="M1635 360 c-3 -5 -2 -10 4 -10 5 0 13 5 16 10 3 6 2 10 -4 10 -5 0
-13 -4 -16 -10z"/>
<path d="M915 300 c-38 -10 -74 -19 -78 -19 -22 -2 9 -20 64 -36 60 -18 61
-18 72 1 6 10 23 31 38 47 l27 27 -26 -1 c-15 0 -58 -9 -97 -19z"/>
<path d="M1055 305 c-73 -36 -104 -151 -59 -213 53 -70 142 -92 204 -50 76 52
96 118 60 193 -13 26 -37 55 -54 66 -37 23 -109 25 -151 4z"/>
<path d="M1234 299 c14 -11 33 -34 41 -50 l15 -29 58 21 c76 28 82 36 36 48
-74 19 -129 31 -153 31 l-24 0 27 -21z"/>
<path d="M785 259 c-16 -5 -5 -14 57 -42 95 -44 113 -48 113 -23 0 23 -139 77
-170 65z"/>
<path d="M1370 239 c-60 -22 -74 -31 -72 -46 2 -10 5 -19 6 -20 3 -4 159 66
168 75 21 21 -32 17 -102 -9z"/>
<path d="M670 226 c0 -16 286 -166 317 -166 2 0 -3 13 -11 29 -9 16 -27 32
-42 35 -14 4 -72 29 -128 56 -90 44 -136 59 -136 46z"/>
<path d="M1492 203 c-24 -14 -80 -40 -124 -58 -59 -25 -86 -41 -96 -60 -13
-26 -13 -27 10 -20 70 22 298 144 298 161 0 12 -50 -1 -88 -23z"/>
</g>
</svg>
