<?xml version="1.0" standalone="no"?>
<!DOCTYPE svg PUBLIC "-//W3C//DTD SVG 20010904//EN"
 "http://www.w3.org/TR/2001/REC-SVG-20010904/DTD/svg10.dtd">
<svg version="1.0" xmlns="http://www.w3.org/2000/svg"
 width="189.000000pt" height="267.000000pt" viewBox="0 0 189.000000 267.000000"
 preserveAspectRatio="xMidYMid meet">

<g transform="translate(0.000000,267.000000) scale(0.100000,-0.100000)"
fill="#000000" stroke="none">
<path d="M1000 1927 c0 -3 15 -10 32 -16 18 -6 28 -7 23 -2 -12 10 -55 25 -55
18z"/>
<path d="M829 1903 c-13 -16 -12 -17 4 -4 9 7 17 15 17 17 0 8 -8 3 -21 -13z"/>
<path d="M828 1818 c-31 -11 -37 -42 -11 -56 17 -10 14 -22 -14 -61 -14 -19
-14 -23 -3 -19 8 3 14 11 12 18 -2 8 3 10 13 6 11 -4 19 2 25 19 10 27 40 34
40 10 0 -8 9 -15 20 -15 17 0 19 3 8 19 -10 16 -9 23 5 39 39 43 -20 68 -95
40z"/>
<path d="M956 1814 c-3 -8 3 -25 15 -37 18 -19 18 -23 4 -33 -21 -15 -19 -24
5 -24 11 0 20 7 20 15 0 8 9 15 20 15 13 0 20 -7 20 -20 0 -13 7 -20 20 -20
11 0 19 -5 18 -11 -2 -6 3 -14 10 -16 19 -7 14 12 -8 32 -24 22 -26 41 -4 49
24 9 13 49 -16 57 -47 13 -98 10 -104 -7z"/>
<path d="M717 1773 c-25 -6 -40 -49 -27 -74 6 -11 8 -24 5 -29 -3 -6 -1 -10 4
-10 6 0 11 11 11 25 0 28 11 31 40 13 15 -10 22 -10 32 0 9 9 8 12 -6 12 -13
0 -17 7 -14 32 3 34 -8 41 -45 31z"/>
<path d="M1125 1770 c-4 -6 -2 -17 4 -24 9 -11 8 -18 -5 -30 -21 -21 -9 -34
16 -18 29 18 40 15 40 -13 0 -14 5 -25 11 -25 6 0 9 6 6 14 -3 7 -1 18 5 24
13 13 0 72 -15 72 -7 0 -22 3 -33 6 -12 3 -25 1 -29 -6z"/>
<path d="M936 1715 c-3 -9 0 -15 9 -15 16 0 20 16 6 24 -5 3 -11 -1 -15 -9z"/>
<path d="M865 1710 c-3 -5 1 -10 10 -10 9 0 13 5 10 10 -3 6 -8 10 -10 10 -2
0 -7 -4 -10 -10z"/>
<path d="M1005 1710 c-3 -5 1 -10 10 -10 9 0 13 5 10 10 -3 6 -8 10 -10 10 -2
0 -7 -4 -10 -10z"/>
<path d="M725 1670 c-3 -5 1 -10 9 -10 8 0 18 5 21 10 3 6 -1 10 -9 10 -8 0
-18 -4 -21 -10z"/>
<path d="M863 1673 c9 -2 23 -2 30 0 6 3 -1 5 -18 5 -16 0 -22 -2 -12 -5z"/>
<path d="M1003 1673 c9 -2 23 -2 30 0 6 3 -1 5 -18 5 -16 0 -22 -2 -12 -5z"/>
<path d="M1140 1670 c0 -5 7 -10 16 -10 8 0 12 5 9 10 -3 6 -10 10 -16 10 -5
0 -9 -4 -9 -10z"/>
<path d="M785 1660 c-13 -5 -14 -9 -5 -9 8 0 24 4 35 9 13 5 14 9 5 9 -8 0
-24 -4 -35 -9z"/>
<path d="M922 1661 c-10 -6 -8 -10 8 -14 30 -8 57 2 38 14 -17 11 -29 11 -46
0z"/>
<path d="M730 1640 c-8 -5 -10 -10 -5 -10 6 0 17 5 25 10 8 5 11 10 5 10 -5 0
-17 -5 -25 -10z"/>
<path d="M800 1640 c-12 -8 -12 -10 5 -10 11 0 27 5 35 10 12 8 12 10 -5 10
-11 0 -27 -5 -35 -10z"/>
<path d="M1050 1640 c20 -13 53 -13 45 0 -3 6 -18 10 -33 10 -21 0 -24 -2 -12
-10z"/>
<path d="M1150 1635 c14 -8 19 -14 13 -15 -7 0 -13 -8 -13 -17 1 -16 2 -16 16
2 13 18 13 21 -3 32 -9 7 -22 13 -27 13 -6 -1 0 -7 14 -15z"/>
<path d="M1188 1643 c7 -3 16 -2 19 1 4 3 -2 6 -13 5 -11 0 -14 -3 -6 -6z"/>
<path d="M720 1610 c0 -5 5 -10 10 -10 6 0 10 5 10 10 0 6 -4 10 -10 10 -5 0
-10 -4 -10 -10z"/>
<path d="M833 1605 c-85 -23 -143 -56 -210 -118 -151 -142 -190 -358 -97 -543
101 -202 323 -305 539 -249 226 59 381 294 345 523 -15 96 -59 182 -130 256
-117 122 -290 173 -447 131z m198 -5 c137 -26 264 -126 328 -259 35 -74 36
-79 36 -191 0 -111 -1 -117 -36 -191 -62 -129 -169 -218 -304 -254 -210 -54
-427 51 -524 254 -35 74 -36 80 -36 191 0 112 1 117 36 191 93 193 294 297
500 259z"/>
<path d="M819 1541 c-192 -61 -316 -264 -280 -458 24 -132 119 -255 241 -312
49 -23 68 -26 165 -26 104 0 114 2 176 32 164 81 262 267 230 439 -46 249
-295 401 -532 325z m243 -11 c35 -11 84 -34 109 -52 263 -189 222 -563 -77
-700 -40 -19 -67 -23 -149 -23 -93 0 -105 2 -165 32 -79 39 -158 116 -193 187
-86 175 -30 392 129 502 103 71 228 91 346 54z"/>
<path d="M705 1454 c-59 -46 -120 -139 -136 -208 -24 -111 4 -248 68 -326 l20
-24 26 29 c25 29 25 31 7 50 -42 47 -55 88 -55 177 0 93 6 111 32 86 11 -11
16 -37 17 -85 3 -110 61 -197 161 -238 28 -12 34 -20 32 -42 -2 -25 1 -28 35
-31 34 -3 37 -1 40 25 2 21 9 29 27 31 20 3 35 -8 72 -49 l46 -52 33 13 c49
20 134 110 166 177 26 53 29 68 29 163 0 94 -3 111 -27 160 -34 69 -74 118
-128 155 l-41 28 -43 -42 -44 -43 -101 -1 -101 0 -36 41 c-19 23 -39 42 -43
42 -5 0 -29 -16 -56 -36z m520 -55 c20 -23 49 -67 64 -98 50 -107 29 -305 -40
-367 -18 -17 -21 -17 -37 -1 -15 16 -15 19 1 45 41 62 51 97 51 177 0 68 -4
88 -28 137 -16 31 -44 71 -62 89 l-34 33 -27 -27 -27 -27 34 -35 c32 -33 33
-36 17 -52 -16 -16 -19 -15 -51 16 l-33 32 -54 -56 -53 -56 -57 57 -57 57 -31
-34 c-49 -53 -67 -131 -46 -193 16 -46 67 -101 107 -115 l28 -10 0 95 0 94 65
0 c58 0 65 -2 65 -20 0 -17 -7 -20 -40 -20 -36 0 -40 -2 -40 -25 0 -23 4 -25
41 -25 36 0 40 -2 37 -22 -2 -19 -10 -24 -40 -26 -35 -3 -38 -6 -38 -34 0 -29
2 -30 33 -24 17 3 53 19 79 35 45 28 47 29 63 11 15 -17 15 -19 -6 -39 -30
-28 -84 -52 -130 -58 -35 -5 -39 -9 -39 -34 0 -24 -4 -29 -25 -29 -21 0 -25 5
-25 28 0 25 -8 33 -57 58 -149 76 -186 266 -74 382 l39 40 -27 26 -27 26 -36
-38 c-102 -106 -118 -277 -35 -395 18 -27 18 -30 3 -45 -16 -16 -18 -15 -36 8
-50 65 -65 111 -65 210 0 88 3 101 33 162 31 63 118 158 145 158 6 0 28 -17
49 -37 l37 -36 106 -1 105 -1 42 42 41 42 27 -19 c15 -11 44 -38 65 -61z m-45
-46 c52 -59 74 -118 74 -198 0 -45 -7 -84 -18 -110 l-18 -40 -109 115 c-60 63
-109 119 -109 123 0 4 11 20 25 35 l26 27 30 -33 30 -33 29 21 c17 12 30 23
30 25 0 3 -14 20 -31 40 -26 29 -29 38 -19 50 18 22 24 19 60 -22z m-309 -332
c13 -33 5 -36 -33 -13 -35 22 -78 87 -78 118 0 23 97 -69 111 -105z"/>
<path d="M890 1342 c0 -12 44 -52 57 -52 13 0 43 33 43 48 0 8 -18 12 -50 12
-27 0 -50 -4 -50 -8z m80 -10 c0 -19 -23 -32 -37 -21 -20 17 -15 29 12 29 14
0 25 -4 25 -8z"/>
</g>
</svg>
