<?xml version="1.0" standalone="no"?>
<!DOCTYPE svg PUBLIC "-//W3C//DTD SVG 20010904//EN"
 "http://www.w3.org/TR/2001/REC-SVG-20010904/DTD/svg10.dtd">
<svg version="1.0" xmlns="http://www.w3.org/2000/svg"
 width="223.000000pt" height="226.000000pt" viewBox="0 0 223.000000 226.000000"
 preserveAspectRatio="xMidYMid meet">

<g transform="translate(0.000000,226.000000) scale(0.100000,-0.100000)"
fill="#000000" stroke="none">
<path d="M715 2174 c-85 -47 -184 -67 -303 -62 -53 3 -116 12 -140 20 l-42 16
-45 -58 c-25 -32 -45 -64 -45 -70 0 -7 8 -24 19 -38 10 -15 33 -55 50 -89 114
-228 68 -482 -131 -707 l-41 -47 52 -53 c48 -48 51 -55 51 -102 0 -81 19 -214
41 -289 64 -214 213 -370 433 -453 85 -32 258 -72 312 -72 16 0 53 -23 103
-65 43 -36 82 -65 86 -65 4 0 41 29 84 64 69 58 81 64 136 70 176 21 368 96
487 190 159 126 248 320 264 573 l7 102 48 47 47 47 -66 86 c-72 95 -133 216
-152 302 -18 79 -8 229 18 303 12 33 40 90 63 129 l41 69 -38 55 c-21 30 -43
57 -49 59 -6 3 -38 -2 -70 -11 -69 -18 -201 -20 -277 -4 -29 6 -90 28 -135 50
l-82 39 -58 -35 c-170 -103 -366 -103 -537 0 -32 19 -61 34 -65 34 -3 -1 -33
-16 -66 -35z m149 -64 c61 -35 165 -60 252 -60 95 0 210 32 283 78 l45 28 65
-33 c130 -66 322 -82 462 -38 10 4 26 -7 43 -30 l27 -35 -21 -30 c-68 -95
-117 -275 -106 -389 12 -138 71 -288 153 -395 21 -27 42 -55 48 -62 7 -10 -1
-25 -32 -56 l-41 -43 -5 -125 c-3 -69 -12 -152 -21 -185 -77 -288 -337 -484
-691 -521 -66 -6 -74 -10 -136 -62 -37 -30 -70 -54 -74 -54 -4 0 -37 24 -73
54 -66 54 -69 55 -159 67 -357 45 -589 224 -669 516 -9 33 -18 117 -21 187
l-6 126 -42 42 -43 42 43 54 c196 240 226 536 80 779 l-35 58 22 26 c13 14 25
30 29 34 3 4 32 1 64 -8 124 -32 295 -12 414 48 61 31 68 33 90 19 13 -8 38
-23 55 -32z"/>
<path d="M1386 2038 c-170 -86 -359 -89 -538 -7 l-66 31 -64 -25 c-35 -14 -86
-31 -113 -37 -55 -12 -246 -15 -288 -5 l-27 7 34 -73 c39 -83 66 -201 66 -283
0 -67 -21 -182 -48 -259 l-20 -57 790 0 c748 0 790 1 783 18 -3 9 -17 55 -31
101 -44 153 -28 355 41 490 l25 51 -138 0 c-149 0 -218 12 -300 54 l-47 24
-59 -30z m144 -363 l0 -335 -40 0 -40 0 0 355 0 355 40 -20 40 -20 0 -335z
m-570 304 c36 -10 84 -18 108 -18 l42 -1 0 -90 0 -91 -122 3 -123 3 -3 114
c-2 106 -1 113 15 106 10 -5 47 -16 83 -26z m400 -304 l0 -335 -40 0 -40 0 2
322 3 321 35 13 c19 7 36 13 38 13 1 1 2 -150 2 -334z m-730 210 l0 -106 -120
3 -121 3 -28 83 c-16 45 -35 90 -42 98 -12 15 -5 16 76 10 50 -3 115 -2 145 3
98 15 90 24 90 -94z m1070 -226 l0 -319 -40 0 -40 0 0 323 0 323 40 -4 40 -4
0 -319z m174 240 c-63 -158 -67 -337 -10 -494 l24 -65 -54 0 -54 0 0 314 0
315 43 4 c95 8 88 17 51 -74z m-674 -249 l0 -310 -40 0 -40 0 0 310 0 310 40
0 40 0 0 -310z m-570 -205 l0 -105 -145 0 c-80 0 -145 2 -145 3 0 2 9 29 19
60 11 31 23 77 26 102 l7 45 119 0 119 0 0 -105z m480 0 l0 -105 -125 0 -125
0 0 105 0 105 125 0 125 0 0 -105z"/>
<path d="M1051 1286 c-49 -27 -66 -107 -36 -166 29 -57 98 -68 142 -24 24 24
25 27 9 36 -12 7 -27 6 -47 -2 -41 -17 -69 8 -69 62 0 46 32 69 69 48 12 -6
31 -8 41 -5 28 9 10 40 -31 54 -40 14 -48 13 -78 -3z"/>
<path d="M1290 1185 l0 -115 65 0 c57 0 69 3 90 25 26 25 33 69 14 80 -6 4 -7
19 -4 36 14 62 -21 89 -116 89 l-49 0 0 -115z m118 48 c2 -9 -8 -13 -32 -13
-26 0 -36 4 -36 16 0 19 61 16 68 -3z m7 -88 c0 -16 -8 -21 -37 -23 -35 -3
-38 -1 -38 23 0 24 3 26 38 23 29 -2 37 -7 37 -23z"/>
<path d="M760 1185 c0 -98 1 -105 20 -105 17 0 20 7 20 45 0 45 0 45 35 45 28
0 35 4 35 20 0 16 -7 20 -35 20 -28 0 -35 4 -35 20 0 18 7 20 55 20 48 0 55 2
55 20 0 18 -7 20 -75 20 l-75 0 0 -105z"/>
<path d="M264 994 c-7 -52 1 -163 17 -233 39 -161 150 -296 310 -375 168 -83
213 -90 524 -90 248 0 277 2 350 22 306 84 474 277 501 577 4 40 4 89 0 109
l-7 36 -844 0 -844 0 -7 -46z m819 -128 c-3 -13 0 -33 6 -45 9 -17 9 -26 -4
-43 -20 -30 -19 -50 6 -82 l21 -27 -23 -25 c-69 -74 -141 33 -110 164 10 40
18 52 44 65 48 24 65 22 60 -7z m160 -13 c43 -30 81 -86 92 -138 l7 -30 -34
37 c-52 58 -105 88 -154 88 -48 0 -71 24 -59 62 6 18 13 20 57 16 33 -4 63
-15 91 -35z m-281 -91 c-3 -52 0 -76 13 -101 15 -31 15 -34 -1 -52 -21 -23
-60 -25 -68 -3 -12 31 -6 125 10 157 14 28 43 67 49 67 1 0 0 -31 -3 -68z
m271 8 c65 -41 110 -105 101 -144 -8 -41 -9 -41 -33 -17 -12 12 -34 21 -51 21
-19 0 -30 5 -30 14 0 8 -12 24 -27 35 -20 16 -34 20 -59 15 -29 -5 -35 -3 -45
19 -9 19 -8 31 5 56 14 26 22 31 54 31 25 0 54 -10 85 -30z m-33 -109 c5 -11
10 -28 10 -38 0 -33 -63 -83 -130 -104 -87 -27 -105 -25 -134 14 -31 40 -32
47 -7 47 10 0 29 8 42 19 17 13 33 17 60 14 32 -5 39 -2 64 31 32 42 77 50 95
17z m88 -57 c33 -23 27 -48 -23 -92 -71 -62 -171 -78 -244 -38 -24 13 -23 13
15 20 66 12 139 51 169 90 30 39 49 44 83 20z"/>
</g>
</svg>
