<?xml version="1.0" encoding="UTF-8"?><svg id="Layer_1" xmlns="http://www.w3.org/2000/svg" viewBox="0 0 438.2 284.8"><defs><style>.cls-1{fill:#d71921;}</style></defs><path class="cls-1" d="M426.4,212.93v-2.15c0-1.61-.54-2.68-2.68-2.68h-1.07v5.9h1.61c.54,0,1.61,0,2.15-1.07M431.76,222.05h-3.22l-2.15-3.22c-1.61-2.15-2.68-3.75-3.75-3.75v6.97h-2.68v-15.02h4.29c4.29,0,5.9,1.07,5.9,3.75l-1.07,3.22-2.68,1.07c1.07,0,1.61,1.07,2.68,2.68l2.15,4.29M432.3,205.96c-1.61-1.61-4.83-2.68-7.51-2.68s-5.36,1.07-7.51,3.22c-2.02,1.98-3.18,4.68-3.22,7.51,0,5.92,4.8,10.73,10.73,10.73,3.22,0,5.36-1.07,7.51-3.22,2.15-1.61,3.22-5.36,3.22-7.51,0-2.68-1.07-5.36-3.22-7.51M433.9,222.58c-2.68,2.68-5.36,3.75-9.12,3.75s-6.44-1.07-9.12-3.75c-4.74-4.47-4.96-11.94-.48-16.68.16-.17.32-.33.48-.48,2.68-2.68,5.36-4.29,9.12-4.29s6.44,1.61,9.12,4.29c2.68,2.15,4.29,5.36,4.29,8.58,0,3.38-1.59,6.56-4.29,8.58M393.14,220.44c-10.19,0-19.31,6.97-18.77,15.55,0,6.97,3.22,12.34,9.12,16.09l8.58,5.36c4.83,3.22,6.44,6.44,6.44,9.65,0,4.29-3.75,10.19-12.34,10.19s-11.8-8.58-11.8-8.58v10.73s5.9,5.36,15.02,5.36c11.8,0,23.06-9.12,23.06-21.45.1-3.91-1.24-7.73-3.75-10.73-3.75-5.36-10.73-9.12-16.09-12.34-3.75-1.61-5.36-4.83-5.36-6.44,0-2.15,1.61-5.9,10.19-5.9,7.51,0,10.73,8.58,10.73,8.58v-10.73s-5.36-5.36-15.02-5.36M256.91,220.44c-10.19,0-15.55,5.36-15.55,5.36v10.73s3.22-8.58,11.8-8.58,9.12,4.29,9.12,6.44c0,0,1.07,2.68-1.61,6.44-3.75,6.97-33.79,8.58-28.96,31.11,2.15,9.65,8.05,12.34,15.02,12.34,8.58,0,12.34-3.75,14.48-7.51,1.07,6.97,5.36,7.51,5.36,7.51h16.09s-6.44-3.75-6.44-12.87v-35.4c0-8.05-10.73-15.55-20.38-15.55M251.01,276.75c-4.29,0-6.44-3.75-6.44-7.51,0-16.09,12.34-18.24,16.09-22.53v26.82c-1.61,1.07-3.22,3.22-10.19,3.22M174.85,200.06c-4.29,0-7.51,3.75-7.51,8.05,0,3.75,3.75,7.51,7.51,7.51,4.29,0,8.05-3.75,8.05-7.51,0-4.29-3.75-8.05-8.05-8.05M348.63,221.51c-17.7,0-26.82,15.55-26.82,32.72s11.26,30.57,27.35,30.57c13.41,0,18.24-5.36,18.24-5.36v-9.65c-4.29,6.44-9.12,8.05-12.87,8.05-2.23-.08-4.43-.63-6.44-1.61-8.05-3.22-9.12-13.41-9.12-13.41,6.44-6.97,13.41-5.36,22.53-15.02,12.87-12.87,3.75-26.82-13.41-26.82M337.9,256.37s-1.61-28.96,9.65-30.04c9.12,0,6.97,12.87,4.29,17.16-4.29,8.05-10.19,8.58-13.41,12.87M307.86,207.57s-4.29,5.9-11.8,12.34c-4.83,3.75-14.48,8.58-14.48,8.58h10.73v43.98c0,11.8,4.83,11.8,4.83,11.8h16.09s-5.9-3.75-5.9-12.34v-42.91h3.75c5.36,0,10.73,2.15,10.73,2.15v-9.65h-14.48v-13.95M201.67,221.51h-10.73s6.44,2.68,6.44,12.34v37.54c0,12.87,5.36,12.87,5.36,12.87h16.09s-5.9-5.36-5.9-12.87v-30.57c0-2.68,1.61-4.83,3.75-6.44s4.83-2.15,7.51-2.15c3.22,0,7.51,1.61,10.19,5.36v-11.8s-2.15-4.83-8.58-4.83c-10.73,0-13.41,12.87-13.41,12.87-.54-10.19-3.22-12.87-10.73-12.87M171.63,220.97h-10.73s6.44,2.68,6.44,12.87v37.54c0,12.34,5.36,12.87,5.36,12.87h16.63s-6.44-4.29-6.44-12.87v-35.4c0-14.48-8.05-14.48-11.26-14.48M101.91,221.51c-12.34,0-15.55,11.8-15.55,11.8,0,0,0-11.8-10.73-11.8h-10.19s5.36,2.68,5.36,12.87v37.54c0,12.34,5.36,12.87,5.36,12.87h17.7s-6.97-5.36-6.97-12.87v-33.25c0-1.61,3.22-6.97,10.73-6.97,3.22,0,7.51,4.83,7.51,9.65v30.04c0,13.41,5.36,13.41,5.36,13.41h16.09s-5.9-5.36-5.9-12.87v-33.25c0-1.61,2.68-6.44,9.12-6.44,5.36,0,9.12,4.29,9.12,8.58v31.11c0,12.87,5.36,12.87,5.36,12.87h16.09s-5.9-4.29-5.9-12.87v-33.25c0-13.41-10.73-17.16-19.31-17.16-10.73,0-13.41,9.12-15.02,11.8-2.15-8.58-10.73-12.34-17.16-12.34M39.69,205.42H0s6.97,5.36,6.44,17.7v48.27c0,12.34,5.36,12.87,5.36,12.87h39.15c8.58,0,11.26-6.44,11.26-10.19v-4.29s-2.15,5.9-13.95,5.9h-18.77c-5.36,0-5.36-5.36-5.36-9.12v-26.28h13.41c4.29,0,8.58,1.07,12.34,2.68,0,0-4.83-10.73-17.7-10.73h-8.05v-8.58s0-6.97-1.61-9.65h11.8c10.73,0,18.77,0,27.89,5.36,0,0-1.61-13.41-22.53-13.41M158.22,133.01l-10.73,11.8c8.05,7.51,10.73,11.8,11.8,15.02,0,0,11.26-9.12,11.26-12.34,0-5.36-3.22-6.97-10.73-14.48M131.4,112.1h-5.36s5.36,3.75,5.36,12.34v28.96c0,18.77,16.09,35.94,34.86,35.94h15.55c10.19,0,13.41-1.61,18.77-6.97l5.36-5.9c3.75-3.75,7.51-6.97,7.51-16.09v-10.19c0-8.05-5.36-10.73-7.51-13.41l-5.36-5.36v19.31l5.36,5.36c9.12,6.97,2.15,18.24-5.36,18.24h-34.86c-16.63-.54-30.04-13.95-30.04-30.57v-15.55c0-16.09-4.29-16.09-4.29-16.09M206.49.54l-8.05,7.51c-3.22,3.75-2.15,10.73,4.83,16.09v17.16c0,1.07-1.61,2.68-1.61,2.68,0,0-9.12-8.05-17.7-8.05h-13.41c-8.05,0-15.02,6.97-15.55,7.51-3.75,4.29-4.29,12.34,0,16.09l8.58,8.58s-2.15-14.48,0-24.14c0-2.15,2.68-4.83,5.9-4.83,7.51,5.36,14.48,10.19,20.92,16.09l-24.14,25.21c-1.07,1.07-4.29,3.75-7.51,3.75-4.29,0-5.36-2.15-7.51-4.29v11.8c0,4.29,5.36,8.05,10.19,8.05h32.18c2.15,0,5.36,0,7.51-2.15l10.19-11.26c2.15-1.61,2.68-3.75,2.68-6.44v-12.87c0-11.26-9.12-20.38-9.12-20.38,0,0,1.61-2.15,1.61-7.51v-12.34s3.75,3.75,4.29,5.36l6.44-6.44c3.22-3.22-2.15-9.65-3.75-11.8C206.49,6.97,206.49,0,206.49,0M165.73,84.74l27.89-26.82s10.73,10.73,15.02,17.7c1.61,2.68,3.75,9.12-5.9,9.12h-37.01M181.82,133.01l-11.26,10.73c8.05,8.05,10.19,12.34,10.73,16.09,1.07-.54,11.8-9.65,11.8-12.87,0-5.36-3.22-6.97-10.73-14.48M138.91,60.61h-5.36c3.22,1.61,5.9,8.05,5.9,12.34v23.6c0,5.9,5.36,29.5,25.74,29.5h61.14v38.62c0,5.9-2.15,10.19-3.75,11.8l-9.65,7.51h4.29l16.09-15.02c3.22-3.22,7.51-7.51,7.51-19.31v-24.14l6.97-7.51,11.8-10.73c0,9.65,5.36,13.41,9.65,13.41,2.38-.15,4.65-1.1,6.44-2.68l10.73-10.19c5.36-4.83,7.51-20.38-4.29-20.38-7.51,0-16.09,10.73-17.16,12.34l-5.36-5.36v9.12c-1.07,2.15-5.36,5.36-9.65,5.36h-8.58v-9.65c0-4.29,1.61-9.65,3.75-10.73l9.65-9.12h-5.36l-18.24,17.16c-3.22,3.22-5.36,10.19-5.36,11.8h-67.58c-8.05,0-13.41-8.05-13.41-15.02v-17.7c0-14.48-3.75-15.55-4.83-16.09M279.44,111.02c-1.61,0-3.22,0-5.36-2.68-2.11-1.85-3.92-4.02-5.36-6.44.54-1.07,3.75-2.15,6.44-2.15,2.15,0,3.75,0,5.36,1.61,3.22,5.36,2.15,9.65-1.61,9.65M253.69,121.75v19.31l5.9,6.97c5.36,5.36,5.36,15.02-10.73,31.11-2.68,2.68-10.73,10.73-21.99,10.73h-29.5l17.7,15.02h11.26c11.8,0,22.53-5.36,30.04-12.34,6.44-6.97,10.19-16.09,10.19-25.21v-25.21c0-8.05-5.36-13.41-7.51-14.48l-5.36-5.36M249.4.54l-17.7,16.09c-1.61,1.07-5.36,7.51-5.36,15.55v47.2c-.47,3.8-1.75,7.46-3.75,10.73l-9.12,7.51h3.75l17.16-15.02c1.61-2.68,6.44-7.51,6.44-16.09V20.38c0-6.97,3.22-10.73,5.36-12.87.54-1.61,6.44-6.44,7.51-7.51l-4.29.54"/></svg>