<?xml version="1.0" encoding="UTF-8" standalone="no"?>
<!DOCTYPE svg PUBLIC "-//W3C//DTD SVG 1.1//EN"
 "http://www.w3.org/Graphics/SVG/1.1/DTD/svg11.dtd">
<!-- Generated by graphviz version 2.47.0 (20210316.0004)
 -->
<!-- Title: dependencies Pages: 1 -->
<svg width="2037pt" height="284pt"
 viewBox="0.00 0.00 2037.00 284.00" xmlns="http://www.w3.org/2000/svg" xmlns:xlink="http://www.w3.org/1999/xlink">
<g id="graph0" class="graph" transform="scale(1 1) rotate(0) translate(4 280)">
<title>dependencies</title>
<polygon fill="white" stroke="transparent" points="-4,4 -4,-280 2033,-280 2033,4 -4,4"/>
<text text-anchor="start" x="993.51" y="-42.4" font-family="Times-12" font-weight="bold" font-size="14.00">Legend</text>
<polygon fill="#ffffb3" stroke="transparent" points="780.5,-10 780.5,-30 800.5,-30 800.5,-10 780.5,-10"/>
<text text-anchor="start" x="804.13" y="-15.4" font-family="Times-12" font-size="14.00"> &#160;Declarations</text>
<polygon fill="#8dd3c7" stroke="transparent" points="893.5,-10 893.5,-30 913.5,-30 913.5,-10 893.5,-10"/>
<text text-anchor="start" x="917.23" y="-15.4" font-family="Times-12" font-size="14.00"> &#160;Module</text>
<polygon fill="#80b1d3" stroke="transparent" points="979.5,-10 979.5,-30 999.5,-30 999.5,-10 979.5,-10"/>
<text text-anchor="start" x="1003.28" y="-15.4" font-family="Times-12" font-size="14.00"> &#160;Bootstrap</text>
<polygon fill="#fdb462" stroke="transparent" points="1076.5,-10 1076.5,-30 1096.5,-30 1096.5,-10 1076.5,-10"/>
<text text-anchor="start" x="1100.17" y="-15.4" font-family="Times-12" font-size="14.00"> &#160;Providers</text>
<polygon fill="#fb8072" stroke="transparent" points="1172.5,-10 1172.5,-30 1192.5,-30 1192.5,-10 1172.5,-10"/>
<text text-anchor="start" x="1196.23" y="-15.4" font-family="Times-12" font-size="14.00"> &#160;Exports</text>
<g id="clust1" class="cluster">
<title>cluster_AppModule</title>
<polygon fill="none" stroke="black" stroke-dasharray="1,5" points="8,-70 8,-268 2021,-268 2021,-70 8,-70"/>
</g>
<g id="clust17" class="cluster">
<title>cluster_AppModule_bootstrap</title>
<polygon fill="none" stroke="black" points="908,-208 908,-260 1032,-260 1032,-208 908,-208"/>
</g>
<g id="clust18" class="cluster">
<title>cluster_AppModule_providers</title>
<polygon fill="none" stroke="black" points="1867,-78 1867,-130 2013,-130 2013,-78 1867,-78"/>
</g>
<g id="clust15" class="cluster">
<title>cluster_AppModule_imports</title>
<polygon fill="none" stroke="black" points="1715,-78 1715,-130 1859,-130 1859,-78 1715,-78"/>
</g>
<g id="clust2" class="cluster">
<title>cluster_AppModule_declarations</title>
<polygon fill="none" stroke="black" points="16,-78 16,-130 1707,-130 1707,-78 16,-78"/>
</g>
<!-- AppComponent -->
<g id="node1" class="node">
<title>AppComponent</title>
<polygon fill="#ffffb3" stroke="black" points="1698.94,-122 1593.06,-122 1593.06,-86 1698.94,-86 1698.94,-122"/>
<text text-anchor="middle" x="1646" y="-99.8" font-family="Times,serif" font-size="14.00">AppComponent</text>
</g>
<!-- AppModule -->
<g id="node13" class="node">
<title>AppModule</title>
<polygon fill="#8dd3c7" stroke="black" points="1011.66,-187 1008.66,-191 987.66,-191 984.66,-187 928.34,-187 928.34,-151 1011.66,-151 1011.66,-187"/>
<text text-anchor="middle" x="970" y="-164.8" font-family="Times,serif" font-size="14.00">AppModule</text>
</g>
<!-- AppComponent&#45;&gt;AppModule -->
<g id="edge1" class="edge">
<title>AppComponent&#45;&gt;AppModule</title>
<path fill="none" stroke="black" d="M1646,-122.22C1646,-142.37 1646,-172 1646,-172 1646,-172 1021.78,-172 1021.78,-172"/>
<polygon fill="black" stroke="black" points="1021.78,-168.5 1011.78,-172 1021.78,-175.5 1021.78,-168.5"/>
</g>
<!-- CarritoComponent -->
<g id="node2" class="node">
<title>CarritoComponent</title>
<polygon fill="#ffffb3" stroke="black" points="1575.49,-122 1454.51,-122 1454.51,-86 1575.49,-86 1575.49,-122"/>
<text text-anchor="middle" x="1515" y="-99.8" font-family="Times,serif" font-size="14.00">CarritoComponent</text>
</g>
<!-- CarritoComponent&#45;&gt;AppModule -->
<g id="edge2" class="edge">
<title>CarritoComponent&#45;&gt;AppModule</title>
<path fill="none" stroke="black" d="M1515,-122.22C1515,-140.83 1515,-167 1515,-167 1515,-167 1021.86,-167 1021.86,-167"/>
<polygon fill="black" stroke="black" points="1021.86,-163.5 1011.86,-167 1021.86,-170.5 1021.86,-163.5"/>
</g>
<!-- ContactoComponent -->
<g id="node3" class="node">
<title>ContactoComponent</title>
<polygon fill="#ffffb3" stroke="black" points="1436.88,-122 1305.12,-122 1305.12,-86 1436.88,-86 1436.88,-122"/>
<text text-anchor="middle" x="1371" y="-99.8" font-family="Times,serif" font-size="14.00">ContactoComponent</text>
</g>
<!-- ContactoComponent&#45;&gt;AppModule -->
<g id="edge3" class="edge">
<title>ContactoComponent&#45;&gt;AppModule</title>
<path fill="none" stroke="black" d="M1371,-122.03C1371,-139.06 1371,-162 1371,-162 1371,-162 1021.78,-162 1021.78,-162"/>
<polygon fill="black" stroke="black" points="1021.78,-158.5 1011.78,-162 1021.78,-165.5 1021.78,-158.5"/>
</g>
<!-- DetalleProductoComponent -->
<g id="node4" class="node">
<title>DetalleProductoComponent</title>
<polygon fill="#ffffb3" stroke="black" points="1287.3,-122 1114.7,-122 1114.7,-86 1287.3,-86 1287.3,-122"/>
<text text-anchor="middle" x="1201" y="-99.8" font-family="Times,serif" font-size="14.00">DetalleProductoComponent</text>
</g>
<!-- DetalleProductoComponent&#45;&gt;AppModule -->
<g id="edge4" class="edge">
<title>DetalleProductoComponent&#45;&gt;AppModule</title>
<path fill="none" stroke="black" d="M1201,-122.24C1201,-137.57 1201,-157 1201,-157 1201,-157 1021.83,-157 1021.83,-157"/>
<polygon fill="black" stroke="black" points="1021.83,-153.5 1011.83,-157 1021.83,-160.5 1021.83,-153.5"/>
</g>
<!-- FooterComponent -->
<g id="node5" class="node">
<title>FooterComponent</title>
<polygon fill="#ffffb3" stroke="black" points="1096.88,-122 979.12,-122 979.12,-86 1096.88,-86 1096.88,-122"/>
<text text-anchor="middle" x="1038" y="-99.8" font-family="Times,serif" font-size="14.00">FooterComponent</text>
</g>
<!-- FooterComponent&#45;&gt;AppModule -->
<g id="edge5" class="edge">
<title>FooterComponent&#45;&gt;AppModule</title>
<path fill="none" stroke="black" d="M995.44,-122.11C995.44,-122.11 995.44,-140.99 995.44,-140.99"/>
<polygon fill="black" stroke="black" points="991.94,-140.99 995.44,-150.99 998.94,-140.99 991.94,-140.99"/>
</g>
<!-- FutbolComponent -->
<g id="node6" class="node">
<title>FutbolComponent</title>
<polygon fill="#ffffb3" stroke="black" points="960.9,-122 843.1,-122 843.1,-86 960.9,-86 960.9,-122"/>
<text text-anchor="middle" x="902" y="-99.8" font-family="Times,serif" font-size="14.00">FutbolComponent</text>
</g>
<!-- FutbolComponent&#45;&gt;AppModule -->
<g id="edge6" class="edge">
<title>FutbolComponent&#45;&gt;AppModule</title>
<path fill="none" stroke="black" d="M944.56,-122.11C944.56,-122.11 944.56,-140.99 944.56,-140.99"/>
<polygon fill="black" stroke="black" points="941.06,-140.99 944.56,-150.99 948.06,-140.99 941.06,-140.99"/>
</g>
<!-- HomeComponent -->
<g id="node7" class="node">
<title>HomeComponent</title>
<polygon fill="#ffffb3" stroke="black" points="824.55,-122 709.45,-122 709.45,-86 824.55,-86 824.55,-122"/>
<text text-anchor="middle" x="767" y="-99.8" font-family="Times,serif" font-size="14.00">HomeComponent</text>
</g>
<!-- HomeComponent&#45;&gt;AppModule -->
<g id="edge7" class="edge">
<title>HomeComponent&#45;&gt;AppModule</title>
<path fill="none" stroke="black" d="M767,-122.24C767,-137.57 767,-157 767,-157 767,-157 917.94,-157 917.94,-157"/>
<polygon fill="black" stroke="black" points="917.94,-160.5 927.94,-157 917.94,-153.5 917.94,-160.5"/>
</g>
<!-- LoginComponent -->
<g id="node8" class="node">
<title>LoginComponent</title>
<polygon fill="#ffffb3" stroke="black" points="691.28,-122 576.72,-122 576.72,-86 691.28,-86 691.28,-122"/>
<text text-anchor="middle" x="634" y="-99.8" font-family="Times,serif" font-size="14.00">LoginComponent</text>
</g>
<!-- LoginComponent&#45;&gt;AppModule -->
<g id="edge8" class="edge">
<title>LoginComponent&#45;&gt;AppModule</title>
<path fill="none" stroke="black" d="M634,-122.03C634,-139.06 634,-162 634,-162 634,-162 918.12,-162 918.12,-162"/>
<polygon fill="black" stroke="black" points="918.12,-165.5 928.12,-162 918.12,-158.5 918.12,-165.5"/>
</g>
<!-- NavbarComponent -->
<g id="node9" class="node">
<title>NavbarComponent</title>
<polygon fill="#ffffb3" stroke="black" points="558.03,-122 435.97,-122 435.97,-86 558.03,-86 558.03,-122"/>
<text text-anchor="middle" x="497" y="-99.8" font-family="Times,serif" font-size="14.00">NavbarComponent</text>
</g>
<!-- NavbarComponent&#45;&gt;AppModule -->
<g id="edge9" class="edge">
<title>NavbarComponent&#45;&gt;AppModule</title>
<path fill="none" stroke="black" d="M497,-122.22C497,-140.83 497,-167 497,-167 497,-167 918.02,-167 918.02,-167"/>
<polygon fill="black" stroke="black" points="918.02,-170.5 928.02,-167 918.02,-163.5 918.02,-170.5"/>
</g>
<!-- PagoComponent -->
<g id="node10" class="node">
<title>PagoComponent</title>
<polygon fill="#ffffb3" stroke="black" points="417.83,-122 308.17,-122 308.17,-86 417.83,-86 417.83,-122"/>
<text text-anchor="middle" x="363" y="-99.8" font-family="Times,serif" font-size="14.00">PagoComponent</text>
</g>
<!-- PagoComponent&#45;&gt;AppModule -->
<g id="edge10" class="edge">
<title>PagoComponent&#45;&gt;AppModule</title>
<path fill="none" stroke="black" d="M363,-122.22C363,-142.37 363,-172 363,-172 363,-172 918.28,-172 918.28,-172"/>
<polygon fill="black" stroke="black" points="918.28,-175.5 928.28,-172 918.28,-168.5 918.28,-175.5"/>
</g>
<!-- RegistroComponent -->
<g id="node11" class="node">
<title>RegistroComponent</title>
<polygon fill="#ffffb3" stroke="black" points="290.27,-122 161.73,-122 161.73,-86 290.27,-86 290.27,-122"/>
<text text-anchor="middle" x="226" y="-99.8" font-family="Times,serif" font-size="14.00">RegistroComponent</text>
</g>
<!-- RegistroComponent&#45;&gt;AppModule -->
<g id="edge11" class="edge">
<title>RegistroComponent&#45;&gt;AppModule</title>
<path fill="none" stroke="black" d="M226,-122.04C226,-143.66 226,-177 226,-177 226,-177 918.14,-177 918.14,-177"/>
<polygon fill="black" stroke="black" points="918.14,-180.5 928.14,-177 918.14,-173.5 918.14,-180.5"/>
</g>
<!-- TiendaComponent -->
<g id="node12" class="node">
<title>TiendaComponent</title>
<polygon fill="#ffffb3" stroke="black" points="144.2,-122 23.8,-122 23.8,-86 144.2,-86 144.2,-122"/>
<text text-anchor="middle" x="84" y="-99.8" font-family="Times,serif" font-size="14.00">TiendaComponent</text>
</g>
<!-- TiendaComponent&#45;&gt;AppModule -->
<g id="edge12" class="edge">
<title>TiendaComponent&#45;&gt;AppModule</title>
<path fill="none" stroke="black" d="M84,-122.09C84,-145.13 84,-182 84,-182 84,-182 918.16,-182 918.16,-182"/>
<polygon fill="black" stroke="black" points="918.16,-185.5 928.16,-182 918.16,-178.5 918.16,-185.5"/>
</g>
<!-- AppComponent  -->
<g id="node15" class="node">
<title>AppComponent </title>
<polygon fill="#80b1d3" stroke="black" points="1024.44,-252 915.56,-252 915.56,-216 1024.44,-216 1024.44,-252"/>
<text text-anchor="middle" x="970" y="-229.8" font-family="Times,serif" font-size="14.00">AppComponent </text>
</g>
<!-- AppModule&#45;&gt;AppComponent  -->
<g id="edge14" class="edge">
<title>AppModule&#45;&gt;AppComponent </title>
<path fill="none" stroke="black" stroke-dasharray="1,5" d="M970,-187.11C970,-187.11 970,-205.99 970,-205.99"/>
<polygon fill="black" stroke="black" points="966.5,-205.99 970,-215.99 973.5,-205.99 966.5,-205.99"/>
</g>
<!-- AppRoutingModule -->
<g id="node14" class="node">
<title>AppRoutingModule</title>
<polygon fill="#8dd3c7" stroke="black" points="1851.27,-122 1848.27,-126 1827.27,-126 1824.27,-122 1722.73,-122 1722.73,-86 1851.27,-86 1851.27,-122"/>
<text text-anchor="middle" x="1787" y="-99.8" font-family="Times,serif" font-size="14.00">AppRoutingModule</text>
</g>
<!-- AppRoutingModule&#45;&gt;AppModule -->
<g id="edge13" class="edge">
<title>AppRoutingModule&#45;&gt;AppModule</title>
<path fill="none" stroke="black" d="M1787,-122.04C1787,-143.66 1787,-177 1787,-177 1787,-177 1021.92,-177 1021.92,-177"/>
<polygon fill="black" stroke="black" points="1021.92,-173.5 1011.92,-177 1021.92,-180.5 1021.92,-173.5"/>
</g>
<!-- FutbolService -->
<g id="node16" class="node">
<title>FutbolService</title>
<ellipse fill="#fdb462" stroke="black" cx="1940" cy="-104" rx="65.43" ry="18"/>
<text text-anchor="middle" x="1940" y="-99.8" font-family="Times,serif" font-size="14.00">FutbolService</text>
</g>
<!-- FutbolService&#45;&gt;AppModule -->
<g id="edge15" class="edge">
<title>FutbolService&#45;&gt;AppModule</title>
<path fill="none" stroke="black" d="M1940,-122.09C1940,-145.13 1940,-182 1940,-182 1940,-182 1021.68,-182 1021.68,-182"/>
<polygon fill="black" stroke="black" points="1021.68,-178.5 1011.68,-182 1021.68,-185.5 1021.68,-178.5"/>
</g>
</g>
</svg>
