<?xml version="1.0" encoding="UTF-8" standalone="no"?>
<!DOCTYPE svg PUBLIC "-//W3C//DTD SVG 1.1//EN"
 "http://www.w3.org/Graphics/SVG/1.1/DTD/svg11.dtd">
<!-- Generated by graphviz version 2.47.0 (20210316.0004)
 -->
<!-- Title: dependencies Pages: 1 -->
<svg width="2037pt" height="284pt"
 viewBox="0.00 0.00 2037.00 284.00" xmlns="http://www.w3.org/2000/svg" xmlns:xlink="http://www.w3.org/1999/xlink">
<g id="graph0" class="graph" transform="scale(1 1) rotate(0) translate(4 280)">
<title>dependencies</title>
<polygon fill="white" stroke="transparent" points="-4,4 -4,-280 2033,-280 2033,4 -4,4"/>
<text text-anchor="start" x="993.51" y="-42.4" font-family="Times-12" font-weight="bold" font-size="14.00">Legend</text>
<polygon fill="#ffffb3" stroke="transparent" points="780.5,-10 780.5,-30 800.5,-30 800.5,-10 780.5,-10"/>
<text text-anchor="start" x="804.13" y="-15.4" font-family="Times-12" font-size="14.00"> &#160;Declarations</text>
<polygon fill="#8dd3c7" stroke="transparent" points="893.5,-10 893.5,-30 913.5,-30 913.5,-10 893.5,-10"/>
<text text-anchor="start" x="917.23" y="-15.4" font-family="Times-12" font-size="14.00"> &#160;Module</text>
<polygon fill="#80b1d3" stroke="transparent" points="979.5,-10 979.5,-30 999.5,-30 999.5,-10 979.5,-10"/>
<text text-anchor="start" x="1003.28" y="-15.4" font-family="Times-12" font-size="14.00"> &#160;Bootstrap</text>
<polygon fill="#fdb462" stroke="transparent" points="1076.5,-10 1076.5,-30 1096.5,-30 1096.5,-10 1076.5,-10"/>
<text text-anchor="start" x="1100.17" y="-15.4" font-family="Times-12" font-size="14.00"> &#160;Providers</text>
<polygon fill="#fb8072" stroke="transparent" points="1172.5,-10 1172.5,-30 1192.5,-30 1192.5,-10 1172.5,-10"/>
<text text-anchor="start" x="1196.23" y="-15.4" font-family="Times-12" font-size="14.00"> &#160;Exports</text>
<g id="clust1" class="cluster">
<title>cluster_AppModule</title>
<polygon fill="none" stroke="black" stroke-dasharray="1,5" points="8,-70 8,-268 2021,-268 2021,-70 8,-70"/>
</g>
<g id="clust2" class="cluster">
<title>cluster_AppModule_declarations</title>
<polygon fill="none" stroke="black" points="322,-78 322,-130 2013,-130 2013,-78 322,-78"/>
</g>
<g id="clust15" class="cluster">
<title>cluster_AppModule_imports</title>
<polygon fill="none" stroke="black" points="170,-78 170,-130 314,-130 314,-78 170,-78"/>
</g>
<g id="clust17" class="cluster">
<title>cluster_AppModule_bootstrap</title>
<polygon fill="none" stroke="black" points="944,-208 944,-260 1068,-260 1068,-208 944,-208"/>
</g>
<g id="clust18" class="cluster">
<title>cluster_AppModule_providers</title>
<polygon fill="none" stroke="black" points="16,-78 16,-130 162,-130 162,-78 16,-78"/>
</g>
<!-- AppComponent -->
<g id="node1" class="node">
<title>AppComponent</title>
<polygon fill="#ffffb3" stroke="black" points="2004.94,-122 1899.06,-122 1899.06,-86 2004.94,-86 2004.94,-122"/>
<text text-anchor="middle" x="1952" y="-99.8" font-family="Times,serif" font-size="14.00">AppComponent</text>
</g>
<!-- AppModule -->
<g id="node13" class="node">
<title>AppModule</title>
<polygon fill="#8dd3c7" stroke="black" points="1047.66,-187 1044.66,-191 1023.66,-191 1020.66,-187 964.34,-187 964.34,-151 1047.66,-151 1047.66,-187"/>
<text text-anchor="middle" x="1006" y="-164.8" font-family="Times,serif" font-size="14.00">AppModule</text>
</g>
<!-- AppComponent&#45;&gt;AppModule -->
<g id="edge1" class="edge">
<title>AppComponent&#45;&gt;AppModule</title>
<path fill="none" stroke="black" d="M1952,-122.09C1952,-145.13 1952,-182 1952,-182 1952,-182 1057.87,-182 1057.87,-182"/>
<polygon fill="black" stroke="black" points="1057.87,-178.5 1047.87,-182 1057.87,-185.5 1057.87,-178.5"/>
</g>
<!-- CarritoComponent -->
<g id="node2" class="node">
<title>CarritoComponent</title>
<polygon fill="#ffffb3" stroke="black" points="1881.49,-122 1760.51,-122 1760.51,-86 1881.49,-86 1881.49,-122"/>
<text text-anchor="middle" x="1821" y="-99.8" font-family="Times,serif" font-size="14.00">CarritoComponent</text>
</g>
<!-- CarritoComponent&#45;&gt;AppModule -->
<g id="edge2" class="edge">
<title>CarritoComponent&#45;&gt;AppModule</title>
<path fill="none" stroke="black" d="M1821,-122.04C1821,-143.66 1821,-177 1821,-177 1821,-177 1057.82,-177 1057.82,-177"/>
<polygon fill="black" stroke="black" points="1057.82,-173.5 1047.82,-177 1057.82,-180.5 1057.82,-173.5"/>
</g>
<!-- ContactoComponent -->
<g id="node3" class="node">
<title>ContactoComponent</title>
<polygon fill="#ffffb3" stroke="black" points="1742.88,-122 1611.12,-122 1611.12,-86 1742.88,-86 1742.88,-122"/>
<text text-anchor="middle" x="1677" y="-99.8" font-family="Times,serif" font-size="14.00">ContactoComponent</text>
</g>
<!-- ContactoComponent&#45;&gt;AppModule -->
<g id="edge3" class="edge">
<title>ContactoComponent&#45;&gt;AppModule</title>
<path fill="none" stroke="black" d="M1677,-122.22C1677,-142.37 1677,-172 1677,-172 1677,-172 1057.72,-172 1057.72,-172"/>
<polygon fill="black" stroke="black" points="1057.72,-168.5 1047.72,-172 1057.72,-175.5 1057.72,-168.5"/>
</g>
<!-- DetalleProductoComponent -->
<g id="node4" class="node">
<title>DetalleProductoComponent</title>
<polygon fill="#ffffb3" stroke="black" points="1593.3,-122 1420.7,-122 1420.7,-86 1593.3,-86 1593.3,-122"/>
<text text-anchor="middle" x="1507" y="-99.8" font-family="Times,serif" font-size="14.00">DetalleProductoComponent</text>
</g>
<!-- DetalleProductoComponent&#45;&gt;AppModule -->
<g id="edge4" class="edge">
<title>DetalleProductoComponent&#45;&gt;AppModule</title>
<path fill="none" stroke="black" d="M1507,-122.22C1507,-140.83 1507,-167 1507,-167 1507,-167 1057.85,-167 1057.85,-167"/>
<polygon fill="black" stroke="black" points="1057.85,-163.5 1047.85,-167 1057.85,-170.5 1057.85,-163.5"/>
</g>
<!-- FooterComponent -->
<g id="node5" class="node">
<title>FooterComponent</title>
<polygon fill="#ffffb3" stroke="black" points="1402.88,-122 1285.12,-122 1285.12,-86 1402.88,-86 1402.88,-122"/>
<text text-anchor="middle" x="1344" y="-99.8" font-family="Times,serif" font-size="14.00">FooterComponent</text>
</g>
<!-- FooterComponent&#45;&gt;AppModule -->
<g id="edge5" class="edge">
<title>FooterComponent&#45;&gt;AppModule</title>
<path fill="none" stroke="black" d="M1344,-122.03C1344,-139.06 1344,-162 1344,-162 1344,-162 1057.78,-162 1057.78,-162"/>
<polygon fill="black" stroke="black" points="1057.78,-158.5 1047.78,-162 1057.78,-165.5 1057.78,-158.5"/>
</g>
<!-- FutbolComponent -->
<g id="node6" class="node">
<title>FutbolComponent</title>
<polygon fill="#ffffb3" stroke="black" points="1266.9,-122 1149.1,-122 1149.1,-86 1266.9,-86 1266.9,-122"/>
<text text-anchor="middle" x="1208" y="-99.8" font-family="Times,serif" font-size="14.00">FutbolComponent</text>
</g>
<!-- FutbolComponent&#45;&gt;AppModule -->
<g id="edge6" class="edge">
<title>FutbolComponent&#45;&gt;AppModule</title>
<path fill="none" stroke="black" d="M1208,-122.24C1208,-137.57 1208,-157 1208,-157 1208,-157 1057.85,-157 1057.85,-157"/>
<polygon fill="black" stroke="black" points="1057.85,-153.5 1047.85,-157 1057.85,-160.5 1057.85,-153.5"/>
</g>
<!-- HomeComponent -->
<g id="node7" class="node">
<title>HomeComponent</title>
<polygon fill="#ffffb3" stroke="black" points="1130.55,-122 1015.45,-122 1015.45,-86 1130.55,-86 1130.55,-122"/>
<text text-anchor="middle" x="1073" y="-99.8" font-family="Times,serif" font-size="14.00">HomeComponent</text>
</g>
<!-- HomeComponent&#45;&gt;AppModule -->
<g id="edge7" class="edge">
<title>HomeComponent&#45;&gt;AppModule</title>
<path fill="none" stroke="black" d="M1031.53,-122.11C1031.53,-122.11 1031.53,-140.99 1031.53,-140.99"/>
<polygon fill="black" stroke="black" points="1028.03,-140.99 1031.53,-150.99 1035.03,-140.99 1028.03,-140.99"/>
</g>
<!-- LoginComponent -->
<g id="node8" class="node">
<title>LoginComponent</title>
<polygon fill="#ffffb3" stroke="black" points="997.28,-122 882.72,-122 882.72,-86 997.28,-86 997.28,-122"/>
<text text-anchor="middle" x="940" y="-99.8" font-family="Times,serif" font-size="14.00">LoginComponent</text>
</g>
<!-- LoginComponent&#45;&gt;AppModule -->
<g id="edge8" class="edge">
<title>LoginComponent&#45;&gt;AppModule</title>
<path fill="none" stroke="black" d="M980.78,-122.11C980.78,-122.11 980.78,-140.99 980.78,-140.99"/>
<polygon fill="black" stroke="black" points="977.28,-140.99 980.78,-150.99 984.28,-140.99 977.28,-140.99"/>
</g>
<!-- NavbarComponent -->
<g id="node9" class="node">
<title>NavbarComponent</title>
<polygon fill="#ffffb3" stroke="black" points="864.03,-122 741.97,-122 741.97,-86 864.03,-86 864.03,-122"/>
<text text-anchor="middle" x="803" y="-99.8" font-family="Times,serif" font-size="14.00">NavbarComponent</text>
</g>
<!-- NavbarComponent&#45;&gt;AppModule -->
<g id="edge9" class="edge">
<title>NavbarComponent&#45;&gt;AppModule</title>
<path fill="none" stroke="black" d="M803,-122.24C803,-137.57 803,-157 803,-157 803,-157 953.94,-157 953.94,-157"/>
<polygon fill="black" stroke="black" points="953.94,-160.5 963.94,-157 953.94,-153.5 953.94,-160.5"/>
</g>
<!-- PagoComponent -->
<g id="node10" class="node">
<title>PagoComponent</title>
<polygon fill="#ffffb3" stroke="black" points="723.83,-122 614.17,-122 614.17,-86 723.83,-86 723.83,-122"/>
<text text-anchor="middle" x="669" y="-99.8" font-family="Times,serif" font-size="14.00">PagoComponent</text>
</g>
<!-- PagoComponent&#45;&gt;AppModule -->
<g id="edge10" class="edge">
<title>PagoComponent&#45;&gt;AppModule</title>
<path fill="none" stroke="black" d="M669,-122.03C669,-139.06 669,-162 669,-162 669,-162 954.34,-162 954.34,-162"/>
<polygon fill="black" stroke="black" points="954.34,-165.5 964.34,-162 954.34,-158.5 954.34,-165.5"/>
</g>
<!-- RegistroComponent -->
<g id="node11" class="node">
<title>RegistroComponent</title>
<polygon fill="#ffffb3" stroke="black" points="596.27,-122 467.73,-122 467.73,-86 596.27,-86 596.27,-122"/>
<text text-anchor="middle" x="532" y="-99.8" font-family="Times,serif" font-size="14.00">RegistroComponent</text>
</g>
<!-- RegistroComponent&#45;&gt;AppModule -->
<g id="edge11" class="edge">
<title>RegistroComponent&#45;&gt;AppModule</title>
<path fill="none" stroke="black" d="M532,-122.22C532,-140.83 532,-167 532,-167 532,-167 953.94,-167 953.94,-167"/>
<polygon fill="black" stroke="black" points="953.94,-170.5 963.94,-167 953.94,-163.5 953.94,-170.5"/>
</g>
<!-- TiendaComponent -->
<g id="node12" class="node">
<title>TiendaComponent</title>
<polygon fill="#ffffb3" stroke="black" points="450.2,-122 329.8,-122 329.8,-86 450.2,-86 450.2,-122"/>
<text text-anchor="middle" x="390" y="-99.8" font-family="Times,serif" font-size="14.00">TiendaComponent</text>
</g>
<!-- TiendaComponent&#45;&gt;AppModule -->
<g id="edge12" class="edge">
<title>TiendaComponent&#45;&gt;AppModule</title>
<path fill="none" stroke="black" d="M390,-122.22C390,-142.37 390,-172 390,-172 390,-172 954.14,-172 954.14,-172"/>
<polygon fill="black" stroke="black" points="954.14,-175.5 964.14,-172 954.14,-168.5 954.14,-175.5"/>
</g>
<!-- AppComponent  -->
<g id="node15" class="node">
<title>AppComponent </title>
<polygon fill="#80b1d3" stroke="black" points="1060.44,-252 951.56,-252 951.56,-216 1060.44,-216 1060.44,-252"/>
<text text-anchor="middle" x="1006" y="-229.8" font-family="Times,serif" font-size="14.00">AppComponent </text>
</g>
<!-- AppModule&#45;&gt;AppComponent  -->
<g id="edge14" class="edge">
<title>AppModule&#45;&gt;AppComponent </title>
<path fill="none" stroke="black" stroke-dasharray="1,5" d="M1006,-187.11C1006,-187.11 1006,-205.99 1006,-205.99"/>
<polygon fill="black" stroke="black" points="1002.5,-205.99 1006,-215.99 1009.5,-205.99 1002.5,-205.99"/>
</g>
<!-- AppRoutingModule -->
<g id="node14" class="node">
<title>AppRoutingModule</title>
<polygon fill="#8dd3c7" stroke="black" points="306.27,-122 303.27,-126 282.27,-126 279.27,-122 177.73,-122 177.73,-86 306.27,-86 306.27,-122"/>
<text text-anchor="middle" x="242" y="-99.8" font-family="Times,serif" font-size="14.00">AppRoutingModule</text>
</g>
<!-- AppRoutingModule&#45;&gt;AppModule -->
<g id="edge13" class="edge">
<title>AppRoutingModule&#45;&gt;AppModule</title>
<path fill="none" stroke="black" d="M242,-122.04C242,-143.66 242,-177 242,-177 242,-177 954.11,-177 954.11,-177"/>
<polygon fill="black" stroke="black" points="954.11,-180.5 964.11,-177 954.11,-173.5 954.11,-180.5"/>
</g>
<!-- FutbolService -->
<g id="node16" class="node">
<title>FutbolService</title>
<ellipse fill="#fdb462" stroke="black" cx="89" cy="-104" rx="65.43" ry="18"/>
<text text-anchor="middle" x="89" y="-99.8" font-family="Times,serif" font-size="14.00">FutbolService</text>
</g>
<!-- FutbolService&#45;&gt;AppModule -->
<g id="edge15" class="edge">
<title>FutbolService&#45;&gt;AppModule</title>
<path fill="none" stroke="black" d="M89,-122.09C89,-145.13 89,-182 89,-182 89,-182 954.22,-182 954.22,-182"/>
<polygon fill="black" stroke="black" points="954.22,-185.5 964.22,-182 954.22,-178.5 954.22,-185.5"/>
</g>
</g>
</svg>
